<svg width="24" height="24" viewBox="0 0 24 24" fill="none" xmlns="http://www.w3.org/2000/svg">
<path d="M12.001 1.99976C17.634 1.99976 22.001 6.12676 22.001 11.6998C22.001 17.2728 17.634 21.3998 12.001 21.3998C11.0231 21.4023 10.0494 21.2731 9.10598 21.0158C8.92878 20.967 8.74021 20.9808 8.57198 21.0548L6.58698 21.9308C6.46711 21.9837 6.33606 22.0064 6.20535 21.9969C6.07464 21.9874 5.94828 21.9459 5.83738 21.876C5.72647 21.8062 5.63442 21.7102 5.56931 21.5965C5.5042 21.4827 5.46803 21.3547 5.46398 21.2238L5.40998 19.4438C5.40625 19.3354 5.38047 19.229 5.33422 19.131C5.28796 19.033 5.22221 18.9455 5.14098 18.8738C3.19598 17.1338 2.00098 14.6158 2.00098 11.6998C2.00098 6.12676 6.36698 1.99976 12.001 1.99976ZM5.99598 14.5368C5.71398 14.9838 6.26398 15.4878 6.68498 15.1678L9.83998 12.7738C9.9441 12.6952 10.071 12.6526 10.2015 12.6526C10.3319 12.6526 10.4589 12.6952 10.563 12.7738L12.899 14.5238C13.0648 14.6483 13.2546 14.7371 13.4564 14.7845C13.6583 14.832 13.8678 14.8371 14.0717 14.7995C14.2756 14.7619 14.4695 14.6824 14.6411 14.5661C14.8128 14.4498 14.9585 14.2992 15.069 14.1238L18.006 9.46376C18.288 9.01576 17.738 8.51176 17.317 8.83076L14.162 11.2268C14.0578 11.3054 13.9309 11.3479 13.8005 11.3479C13.67 11.3479 13.5431 11.3054 13.439 11.2268L11.102 9.47676C10.9362 9.35241 10.7465 9.26376 10.5447 9.21639C10.343 9.16903 10.1336 9.16398 9.92984 9.20156C9.72605 9.23914 9.53226 9.31854 9.36069 9.43475C9.18912 9.55096 9.04349 9.70146 8.93298 9.87676L5.99598 14.5368Z" fill="white"/>
</svg>
